<?xml version="1.0" encoding="UTF-8" standalone="no"?>
<!DOCTYPE svg PUBLIC "-//W3C//DTD SVG 1.1//EN" "http://www.w3.org/Graphics/SVG/1.1/DTD/svg11.dtd">
<svg width="100%" height="100%" viewBox="0 0 5937 5937" version="1.1" xmlns="http://www.w3.org/2000/svg" xmlns:xlink="http://www.w3.org/1999/xlink" xml:space="preserve" xmlns:serif="http://www.serif.com/" style="fill-rule:evenodd;clip-rule:evenodd;stroke-linecap:round;stroke-linejoin:round;stroke-miterlimit:1.5;">
    <g transform="matrix(1,0,0,1,-99552,-46145)">
        <g id="f-hair---fleco-b" serif:id="f hair - fleco b" transform="matrix(1,0,0,1,44192.4,35577.2)">
            <rect x="55360.5" y="10568.5" width="5935.37" height="5935.37" style="fill:none;"/>
            <g transform="matrix(1.09895,0,0,0.704551,-20613.7,-6041.87)">
                <path d="M71833.7,25329.9C72073.4,25329.9 72303.3,25478.4 72472.8,25742.8C72642.2,26007.1 72737.5,26365.7 72737.5,26739.5C72737.5,26971.1 72737.5,27137.4 72737.5,27137.4L71750.6,27137.4L71693.9,26896.7L71583.2,27137.4L70930,27137.4C70930,27137.4 70930,26971.1 70930,26739.5C70930,26365.7 71025.2,26007.1 71194.7,25742.8C71364.2,25478.4 71594.1,25329.9 71833.7,25329.9C71833.7,25329.9 71833.7,25329.9 71833.7,25329.9Z" style="fill:rgb(0,177,129);stroke:black;stroke-width:54.17px;"/>
            </g>
            <g transform="matrix(1,0,0,1,-14642.8,-13794.5)">
                <path d="M72893.6,26046.9C72893.6,26046.9 73048.4,26151.9 73048.4,26872.3" style="fill:none;stroke:black;stroke-width:50px;"/>
            </g>
            <g transform="matrix(-3.52923,0,0,1.36976,315859,-23730.7)">
                <path d="M72893.6,26046.9C72893.6,26046.9 73048.4,26151.9 73048.4,26872.3" style="fill:none;stroke:black;stroke-width:18.68px;"/>
            </g>
        </g>
    </g>
</svg>
