<?xml version="1.0" encoding="UTF-8" standalone="no"?>
<!DOCTYPE svg PUBLIC "-//W3C//DTD SVG 1.1//EN" "http://www.w3.org/Graphics/SVG/1.1/DTD/svg11.dtd">
<svg width="100%" height="100%" viewBox="0 0 5936 5937" version="1.1" xmlns="http://www.w3.org/2000/svg" xmlns:xlink="http://www.w3.org/1999/xlink" xml:space="preserve" xmlns:serif="http://www.serif.com/" style="fill-rule:evenodd;clip-rule:evenodd;stroke-linecap:round;stroke-miterlimit:1.5;">
    <g transform="matrix(1,0,0,1,-55360,-63042)">
        <g id="shirt---base" serif:id="shirt - base" transform="matrix(1,0,0,1,-0.520398,52474.2)">
            <rect x="55360.5" y="10568.5" width="5935.37" height="5935.37" style="fill:none;"/>
            <clipPath id="_clip1">
                <rect x="55360.5" y="10568.5" width="5935.37" height="5935.37"/>
            </clipPath>
            <g clip-path="url(#_clip1)">
                <g transform="matrix(1,0,0,1,47680.5,-38968.8)">
                    <g transform="matrix(5.06411,0,0,5.06411,2341.58,49007.3)">
                        <path d="M1856.2,1347.8L1424.21,1347.8L1436.19,1214.31L1263.59,1122.79C1263.59,1122.79 1386.23,944.634 1469.85,908.859L1536.72,888.027C1536.72,888.027 1563.38,934.084 1646.4,934.084C1704.92,934.084 1743.69,888.027 1743.69,888.027L1810.56,908.859C1894.18,944.634 2016.82,1122.79 2016.82,1122.79L1844.23,1214.31L1856.2,1347.8Z" style="fill:rgb(230,220,202);stroke:black;stroke-width:9.87px;"/>
                    </g>
                    <g transform="matrix(11.2181,0,0,11.2181,2361.01,41055.9)">
                        <g transform="matrix(-0.24828,0.24828,0.187629,0.187629,187.934,1206.87)">
                            <path d="M-1163.23,1053.11C-1184.89,1071.77 -1199.95,1101.54 -1223.52,1082.86C-1204.55,1184.53 -1215.31,1269.73 -1231.09,1392.22L-1163.23,1302.83C-1153.06,1215.65 -1151.16,1131.68 -1163.23,1053.11Z" style="fill:rgb(0,47,238);stroke:black;stroke-width:14.32px;stroke-linejoin:round;"/>
                        </g>
                        <g transform="matrix(-0.231405,0.231405,0.13965,0.13965,300.762,1152.31)">
                            <path d="M-879.914,1200.29C-903.56,1208.12 -944.443,1226.96 -988.068,1254.23C-977.044,1335.36 -941.605,1351.09 -946.05,1463.34L-850.87,1453.96C-850.87,1453.96 -863.703,1296.25 -879.914,1200.29Z" style="fill:rgb(0,27,111);stroke:black;stroke-width:16.49px;stroke-linejoin:round;"/>
                        </g>
                        <g transform="matrix(0.249154,0.249154,-0.187433,0.187433,1289.18,1208.16)">
                            <path d="M-1163.23,1053.11C-1183.6,1065.51 -1206.69,1062.9 -1231.09,1053.11C-1212.12,1154.78 -1215.65,1270.94 -1231.42,1393.43L-1163.23,1302.83C-1153.06,1215.65 -1151.16,1131.68 -1163.23,1053.11Z" style="fill:rgb(0,27,111);stroke:black;stroke-width:14.3px;stroke-linejoin:round;"/>
                        </g>
                        <g transform="matrix(0.231405,0.231405,-0.13965,0.13965,1175.61,1152.31)">
                            <path d="M-878.554,1195.29C-905.502,1205.3 -932.49,1208.98 -959.512,1206.91C-948.489,1288.04 -935.19,1343.55 -939.635,1455.8L-847.44,1448.28C-847.44,1448.28 -866.258,1271.88 -878.554,1195.29Z" style="fill:rgb(0,47,238);stroke:black;stroke-width:16.49px;stroke-linejoin:round;"/>
                        </g>
                    </g>
                    <g transform="matrix(11.2181,0,0,11.2181,2372.81,41055.9)">
                        <g transform="matrix(0.451423,0,0,0.451423,-3.66571,708.795)">
                            <path d="M1856.21,1347.8L1812.57,911.391" style="fill:none;stroke:black;stroke-width:9.87px;"/>
                        </g>
                        <g transform="matrix(0.18378,0.410244,-0.177928,0.0381031,723.827,423.233)">
                            <path d="M1857.58,1334.99L1812.57,911.391" style="fill:none;stroke:black;stroke-width:14.06px;"/>
                        </g>
                        <g transform="matrix(-0.18378,0.410244,0.177928,0.0381031,751.456,423.233)">
                            <path d="M1857.58,1334.99L1812.57,911.391" style="fill:none;stroke:black;stroke-width:14.06px;"/>
                        </g>
                        <g transform="matrix(-0.451423,0,0,0.451423,1477.37,708.795)">
                            <path d="M1856.21,1347.8L1812.57,911.391" style="fill:none;stroke:black;stroke-width:9.87px;"/>
                        </g>
                    </g>
                    <g transform="matrix(11.2181,0,0,11.2181,3114.76,41285.7)">
                        <path d="M736.76,1218.72L678.776,1317.22" style="fill:none;stroke:black;stroke-width:4.46px;"/>
                    </g>
                </g>
                <g transform="matrix(0.43461,0,0,0.43461,18423.1,-15895.6)">
                    <path d="M92701.7,73594.1C92701.7,73594.1 92965.8,72940.6 91784.9,72928.8C90784.2,72918.8 90815,73434 90875.9,73578.1" style="fill:none;stroke:black;stroke-width:115.05px;stroke-linejoin:round;"/>
                </g>
                <g transform="matrix(0.43461,0,0,0.43461,18423.1,-15895.6)">
                    <path d="M91859.1,73309.2C91859.1,73309.2 91776.8,72690 92396.2,72498.1C92617.8,72429.4 92915.1,72394.2 93231.9,72437.2C93339.5,72451.8 93402.7,72378.6 93402.7,72378.6C93402.7,72378.6 93346.1,72541.3 93361.2,72702.4C93376.3,72863.4 93439.7,73266.3 93024.6,73386.2C92609.6,73506 92168.7,73415.5 91916.6,73465.4C91664.4,73515.4 91859.1,73309.2 91859.1,73309.2Z" style="fill:none;stroke:black;stroke-width:115.05px;stroke-linejoin:round;"/>
                    <g transform="matrix(-1,0,0,1,183636,0)">
                        <path d="M91859.1,73309.2C91859.1,73309.2 91824.7,72650.1 92444,72458.3C92665.7,72389.6 92937.3,72359.1 93219.2,72420.5C93325.3,72443.6 93402.7,72378.6 93402.7,72378.6C93402.7,72378.6 93346.1,72541.3 93361.2,72702.4C93376.3,72863.4 93496.8,73269.2 93081.7,73389C92666.7,73508.9 92168.7,73415.5 91916.6,73465.4C91664.4,73515.4 91859.1,73309.2 91859.1,73309.2Z" style="fill:none;stroke:black;stroke-width:115.05px;stroke-linejoin:round;"/>
                    </g>
                </g>
                <g transform="matrix(0.43461,0,0,0.43461,18423.1,-15895.6)">
                    <path d="M91939.3,73316.9C91939.3,73316.9 92376.3,73140.2 92454.7,72717.4C92533.1,72294.6 92362.6,72098.3 91982.3,71906.4C91982.3,71906.4 91843.2,71854.4 91836.1,71742C91836.1,71742 91810.9,71844.9 91715.9,71876.1C91547.8,71931.1 91182.2,72138.3 91124.1,72505.9C91060.1,72910.9 91448.8,73271.7 91656.5,73326.8L91939.3,73316.9" style="fill:none;stroke:black;stroke-width:115.05px;stroke-linejoin:round;"/>
                </g>
                <g transform="matrix(-0.162355,1.98828e-17,-1.98828e-17,-0.162355,73221.6,27828.4)">
                    <path d="M91939.3,73316.9C91939.3,73316.9 92376.3,73140.2 92454.7,72717.4C92533.1,72294.6 92362.6,72098.3 91982.3,71906.4C91982.3,71906.4 91843.2,71854.4 91836.1,71742C91836.1,71742 91810.9,71844.9 91715.9,71876.1C91547.8,71931.1 91182.2,72138.3 91124.1,72505.9C91060.1,72910.9 91448.8,73271.7 91656.5,73326.8L91939.3,73316.9" style="stroke:black;stroke-width:307.97px;stroke-linejoin:round;"/>
                </g>
            </g>
        </g>
    </g>
</svg>
