<?xml version="1.0" encoding="UTF-8" standalone="no"?>
<!DOCTYPE svg PUBLIC "-//W3C//DTD SVG 1.1//EN" "http://www.w3.org/Graphics/SVG/1.1/DTD/svg11.dtd">
<svg width="100%" height="100%" viewBox="0 0 5936 5936" version="1.1" xmlns="http://www.w3.org/2000/svg" xmlns:xlink="http://www.w3.org/1999/xlink" xml:space="preserve" xmlns:serif="http://www.serif.com/" style="fill-rule:evenodd;clip-rule:evenodd;stroke-linecap:round;stroke-linejoin:round;stroke-miterlimit:1.5;">
    <g transform="matrix(1,0,0,1,-54646,-38025)">
        <g id="b-hair---affro" serif:id="b hair - affro" transform="matrix(1,0,0,1,-714.02,27456.5)">
            <rect x="55360.5" y="10568.5" width="5935.37" height="5935.37" style="fill:none;"/>
            <g transform="matrix(-5.31615,-6.51041e-16,6.51041e-16,-5.31615,427360,151357)">
                <path d="M69245.9,25968.1C69228.9,25960.9 69217,25944.1 69217,25924.6C69217,25906.8 69226.9,25891.4 69241.4,25883.3C69238.4,25877.1 69236.7,25870.1 69236.7,25862.8C69236.7,25836.8 69257.8,25815.6 69283.9,25815.6C69287.9,25815.6 69291.9,25816.1 69295.6,25817.1C69295,25814 69294.7,25810.9 69294.7,25807.6C69294.7,25781.6 69315.8,25760.5 69341.8,25760.5C69354.7,25760.5 69366.4,25765.7 69374.9,25774.1C69382.2,25757.2 69398.9,25745.4 69418.3,25745.4C69437.1,25745.4 69453.3,25756.4 69460.9,25772.3C69469.2,25765 69480.2,25760.5 69492.2,25760.5C69518.2,25760.5 69539.4,25781.6 69539.4,25807.6C69539.4,25810.4 69539.1,25813.1 69538.7,25815.7C69542.5,25814.7 69546.4,25814.2 69550.5,25814.2C69576.6,25814.2 69597.7,25835.3 69597.7,25861.3C69597.7,25869.8 69595.5,25877.7 69591.6,25884.6C69606.8,25892.4 69617.2,25908.2 69617.2,25926.5C69617.2,25945.5 69606,25961.9 69589.9,25969.3C69591.3,25974.2 69592.1,25979.3 69592.1,25984.7C69592.1,26014.8 69567.6,26039.3 69537.4,26039.3C69507.3,26039.3 69482.8,26014.8 69482.8,25984.7L69352.5,25984.7C69352.5,26014.8 69328,26039.3 69297.9,26039.3C69267.8,26039.3 69243.3,26014.8 69243.3,25984.7C69243.3,25978.9 69244.2,25973.3 69245.9,25968.1Z" style="fill:rgb(0,177,129);stroke:black;stroke-width:9.41px;"/>
            </g>
        </g>
    </g>
</svg>
