<?xml version="1.0" encoding="UTF-8" standalone="no"?>
<!DOCTYPE svg PUBLIC "-//W3C//DTD SVG 1.1//EN" "http://www.w3.org/Graphics/SVG/1.1/DTD/svg11.dtd">
<svg width="100%" height="100%" viewBox="0 0 5936 5936" version="1.1" xmlns="http://www.w3.org/2000/svg" xmlns:xlink="http://www.w3.org/1999/xlink" xml:space="preserve" xmlns:serif="http://www.serif.com/" style="fill-rule:evenodd;clip-rule:evenodd;stroke-linecap:round;stroke-linejoin:round;stroke-miterlimit:1.5;">
    <g transform="matrix(1,0,0,1,-86400,-38025)">
        <g id="b-hair---long-" serif:id="b hair - long " transform="matrix(1,0,0,1,31040,27456.5)">
            <rect x="55360.5" y="10568.5" width="5935.37" height="5935.37" style="fill:none;"/>
            <g transform="matrix(1,0,0,1,28317.8,-24013.7)">
                <g transform="matrix(0.96827,0,0,0.96827,-50260.1,11150.4)">
                    <path d="M82626,25537.5C82626,25537.5 83414.6,25295.2 83863.8,25772.8C84313,26250.3 83944.9,26613 83944.9,27632.1C83944.9,28244 84832.8,28024.8 84460.8,29134C84301.1,29610.1 81665.9,29134 81665.9,29134C81665.9,29134 80849.3,28390 81504.7,27892.4C82160.1,27394.7 81625.9,27229.6 81625.9,26600.1C81625.9,26105.8 81763.1,25476.3 82626,25537.5Z" style="fill:rgb(255,210,62);stroke:black;stroke-width:51.64px;"/>
                </g>
                <g transform="matrix(1,0,0,1,-52890.6,10219.2)">
                    <g transform="matrix(1,0,0,0.739051,164.19,7422.35)">
                        <path d="M83795.9,28111.8C83795.9,28111.8 83751.2,28685.5 83985.2,29332.3" style="fill:rgb(255,210,62);stroke:black;stroke-width:56.87px;"/>
                    </g>
                    <path d="M81655.7,28062C81655.7,28062 81413.3,28539 81787,29154.8" style="fill:rgb(255,210,62);stroke:black;stroke-width:50px;"/>
                    <g transform="matrix(1,0,0,1,90.1735,-82.3408)">
                        <path d="M82001.1,28220.5C82001.1,28220.5 82081.1,28406.2 81974.8,28690.8" style="fill:rgb(255,210,62);stroke:black;stroke-width:50px;"/>
                    </g>
                </g>
            </g>
        </g>
    </g>
</svg>
