<?xml version="1.0" encoding="UTF-8" standalone="no"?>
<!DOCTYPE svg PUBLIC "-//W3C//DTD SVG 1.1//EN" "http://www.w3.org/Graphics/SVG/1.1/DTD/svg11.dtd">
<svg width="100%" height="100%" viewBox="0 0 5936 5936" version="1.1" xmlns="http://www.w3.org/2000/svg" xmlns:xlink="http://www.w3.org/1999/xlink" xml:space="preserve" xmlns:serif="http://www.serif.com/" style="fill-rule:evenodd;clip-rule:evenodd;stroke-linecap:round;stroke-linejoin:round;stroke-miterlimit:1.5;">
    <g transform="matrix(1,0,0,1,-55360,-53597)">
        <g id="head---med-square" serif:id="head - med square" transform="matrix(1,0,0,1,-0.520398,43029)">
            <rect x="55360.5" y="10568.5" width="5935.37" height="5935.37" style="fill:none;"/>
            <clipPath id="_clip1">
                <rect x="55360.5" y="10568.5" width="5935.37" height="5935.37"/>
            </clipPath>
            <g clip-path="url(#_clip1)">
                <g transform="matrix(1,0,0,1,61124,-24043.9)">
                    <g transform="matrix(2.24834,0,0,2.24834,-16059,23200.7)">
                        <rect x="5734.42" y="6629.55" width="329.372" height="756.438" style="fill:rgb(249,199,182);stroke:black;stroke-width:22.24px;"/>
                    </g>
                    <g transform="matrix(1.84083,0,0,1.84083,-2699.85,27683.3)">
                        <g transform="matrix(-1.25809,-1.54072e-16,1.0966e-16,-0.895438,61.5106,9822.68)">
                            <path d="M382.508,5371.43L382.508,4961.66L522.66,4961.66C600.012,4961.66 662.812,5075.8 662.812,5188.88C662.812,5301.96 600.012,5371.43 522.66,5371.43L382.508,5371.43Z" style="fill:rgb(249,199,182);stroke:black;stroke-width:24.87px;"/>
                        </g>
                        <g transform="matrix(1.25809,-1.54072e-16,-1.0966e-16,-0.895438,-165.742,9822.68)">
                            <path d="M382.508,5371.43L382.508,4961.66L522.66,4961.66C600.012,4961.66 662.812,5075.8 662.812,5188.88C662.812,5301.96 600.012,5371.43 522.66,5371.43L382.508,5371.43Z" style="fill:rgb(249,199,182);stroke:black;stroke-width:24.87px;"/>
                        </g>
                    </g>
                    <g transform="matrix(1.84083,0,0,2.33494,-4873.42,25679.8)">
                        <path d="M1178.82,4357.06C1433.17,4357.06 1639.36,4519.62 1639.36,4720.14C1639.36,4848.18 1639.36,4988.32 1639.36,5101.62C1639.36,5237.82 1535.21,5360.6 1375.54,5412.62C1307.63,5434.75 1240.34,5456.67 1192.62,5472.22C1149.34,5486.32 1100.72,5486.22 1057.53,5471.95C1010.95,5456.56 945.72,5435 879.744,5413.2C721.131,5360.78 617.914,5238.43 617.914,5102.84C617.914,4989.34 617.914,4848.64 617.914,4720.14C617.914,4519.62 824.105,4357.06 1078.45,4357.06C1111.81,4357.06 1145.46,4357.06 1178.82,4357.06Z" style="fill:rgb(249,199,182);stroke:black;stroke-width:23.78px;"/>
                    </g>
                    <g transform="matrix(1.84083,0,0,1.84083,-2707.11,27683.3)">
                        <g transform="matrix(1.0824,0,0,1,1635.3,-128.213)">
                            <ellipse cx="-1789.66" cy="5251.61" rx="54.635" ry="128.213" style="stroke:black;stroke-width:26.07px;"/>
                        </g>
                        <g transform="matrix(1.0824,0,0,1,2142.59,-128.213)">
                            <ellipse cx="-1789.66" cy="5251.61" rx="54.635" ry="128.213" style="stroke:black;stroke-width:26.07px;"/>
                        </g>
                    </g>
                    <g transform="matrix(1.84083,0,0,1.84083,-2707.5,27683.3)">
                        <path d="M-143.137,5519.37L47.215,5519.37" style="fill:none;stroke:black;stroke-width:27.16px;"/>
                    </g>
                    <g transform="matrix(4.71463,0,0,4.71463,-10449.4,34341.4)">
                        <path d="M1956.94,1152.51C1956.94,1152.51 1994.8,1263.56 2000.4,1465.82L2044.26,1578.15C2044.26,1578.15 2017.76,1684.76 1942.44,1718.54C1942.44,1718.54 1921.8,1725.76 1911.61,1704.23C1900.22,1680.16 1923.37,1666.99 1928.91,1663.38C1969.23,1637.18 1971.84,1564.52 1953.59,1563.29C1939.87,1562.36 1936.68,1577.86 1933.88,1593.69C1932.82,1599.72 1932.08,1611.84 1927.36,1620.64C1927.36,1620.64 1921.37,1635.76 1904.36,1634.51C1887.36,1633.26 1876.91,1624.8 1876.91,1604.48C1876.91,1586.51 1875.78,1528.63 1875.78,1528.63C1875.78,1528.63 1874.13,1495.16 1900.09,1474.14C1900.09,1474.14 1901,1309.91 1862.76,1202.55C1862.76,1202.55 1846.54,1153.44 1909.69,1129.59C1952.15,1113.56 1956.94,1152.51 1956.94,1152.51Z" style="fill:rgb(249,199,182);stroke:black;stroke-width:10.61px;stroke-linejoin:miter;"/>
                    </g>
                    <g transform="matrix(-4.71463,0,0,4.71463,4857.86,34341.4)">
                        <path d="M1956.94,1152.51C1956.94,1152.51 1994.8,1263.56 2000.4,1465.82L2044.26,1578.15C2044.26,1578.15 2017.76,1684.76 1942.44,1718.54C1942.44,1718.54 1921.8,1725.76 1911.61,1704.23C1900.22,1680.16 1923.37,1666.99 1928.91,1663.38C1969.23,1637.18 1971.84,1564.52 1953.59,1563.29C1939.87,1562.36 1936.68,1577.86 1933.88,1593.69C1932.82,1599.72 1932.08,1611.84 1927.36,1620.64C1927.36,1620.64 1921.37,1635.76 1904.36,1634.51C1887.36,1633.26 1876.91,1624.8 1876.91,1604.48C1876.91,1586.51 1875.78,1528.63 1875.78,1528.63C1875.78,1528.63 1874.13,1495.16 1900.09,1474.14C1900.09,1474.14 1901,1309.91 1862.76,1202.55C1862.76,1202.55 1846.54,1153.44 1909.69,1129.59C1952.15,1113.56 1956.94,1152.51 1956.94,1152.51Z" style="fill:rgb(249,199,182);stroke:black;stroke-width:10.61px;stroke-linejoin:miter;"/>
                    </g>
                    <g transform="matrix(1.84083,0,0,1.84083,-2694.37,27672.9)">
                        <path d="M-134.86,5335.58C-134.86,5291.56 -99.117,5255.81 -55.092,5255.81C-11.068,5255.81 24.675,5291.56 24.675,5335.58C24.675,5379.61 -11.068,5415.35 -55.092,5415.35" style="fill:rgb(249,199,182);stroke:black;stroke-width:27.16px;"/>
                    </g>
                </g>
            </g>
        </g>
    </g>
</svg>
